<?xml version="1.0" standalone="no"?>
<!DOCTYPE svg PUBLIC "-//W3C//DTD SVG 20010904//EN"
 "http://www.w3.org/TR/2001/REC-SVG-20010904/DTD/svg10.dtd">
<svg version="1.0" xmlns="http://www.w3.org/2000/svg"
 width="60.000000pt" height="60.000000pt" viewBox="0 0 60.000000 60.000000"
 preserveAspectRatio="xMidYMid meet">

<g transform="translate(0.000000,60.000000) scale(0.100000,-0.100000)"
fill="#000000" stroke="none">
<path d="M460 526 l0 -33 -63 -5 c-101 -8 -132 -39 -196 -197 -17 -41 -37 -82
-46 -90 -9 -9 -40 -18 -72 -21 l-56 -5 0 -40 c0 -39 0 -40 38 -43 107 -9 152
28 215 177 23 56 52 108 63 116 12 8 43 15 69 15 l48 0 0 -34 c0 -19 4 -37 9
-40 9 -6 111 104 111 119 0 13 -95 115 -107 115 -8 0 -13 -13 -13 -34z"/>
<path d="M29 485 c0 -3 -1 -22 -2 -42 l0 -38 57 -5 c46 -4 61 -10 76 -30 11
-14 20 -28 20 -32 0 -22 19 -3 33 33 20 50 10 71 -49 99 -36 18 -133 28 -135
15z"/>
<path d="M467 254 c-4 -4 -7 -22 -7 -41 l0 -33 -50 0 c-41 0 -56 5 -75 25 -14
13 -25 29 -25 35 0 24 -19 7 -34 -31 -15 -37 -15 -44 -2 -64 21 -32 77 -55
135 -55 l51 0 0 -34 c0 -19 4 -37 9 -40 9 -6 111 106 111 121 -1 15 -105 124
-113 117z"/>
</g>
</svg>
